<svg width="74" height="69" viewBox="0 0 74 69" fill="none" xmlns="http://www.w3.org/2000/svg"><path d="M69.054 46H4.262c-2.3 0-4.121 2-4.121 4.3v3.5c0 2.3 1.82 4.2 4.121 4.2h.959v1c0 5.5 4.313 9.9 9.488 9.9h43.898c5.272 0 9.489-4.5 9.489-9.9v-1h.958c2.205 0 4.122-1.9 4.122-4.3v-3.5c0-2.2-1.821-4.2-4.122-4.2Zm-3.738 13c0 3.8-2.97 6.9-6.613 6.9h-44.09C10.972 65.9 8 62.8 8 59v-1h57.316v1Zm4.984-5.3c0 .7-.575 1.3-1.246 1.3H4.262c-.67 0-1.246-.6-1.246-1.3v-3.5c0-.6.575-1.2 1.246-1.2H69.15c.671 0 1.246.6 1.246 1.3v3.4H70.3ZM15.668 37.9l5.176 4 5.271-4 5.272 4 5.271-4 5.176 4 5.271-4 5.272 4 5.272-4 5.271 4 6.039-4.7-1.63-2.4-4.409 3.3-5.271-4-5.272 4-5.272-4-5.271 4-5.176-4-5.271 4-5.272-4-5.271 4-5.176-4-5.272 4-4.409-3.3-1.725 2.4 6.134 4.7 5.272-4ZM68.096 31.1c0-.6.096-2.6 0-3C67.425 12.5 53.623 0 36.658 0 19.693 0 5.795 12.5 5.125 28.1v3h62.97ZM36.658 3C51.993 3 64.645 14.2 65.22 28.1H8C8.67 14.2 21.323 3 36.658 3Z" fill="#81B3D2"/><path d="M36.658 17c1.059 0 1.917-.895 1.917-2s-.858-2-1.917-2c-1.059 0-1.917.895-1.917 2s.858 2 1.917 2ZM28.99 12.1c1.06 0 1.917-.896 1.917-2 0-1.105-.858-2-1.917-2-1.058 0-1.916.895-1.916 2 0 1.104.858 2 1.916 2ZM44.326 12.1c1.059 0 1.917-.896 1.917-2 0-1.105-.858-2-1.917-2-1.059 0-1.917.895-1.917 2 0 1.104.858 2 1.917 2Z" fill="#81B3D2"/></svg>