<svg width="78" height="76" viewBox="0 0 78 76" fill="none" xmlns="http://www.w3.org/2000/svg"><path d="M74.443 22.124h-30c16.721-6.8 18.073-11.1 17.459-13.5-1.353-3.9-6.886-6.9-12.05-5.3-6.762 2.1-8.606 10.3-10.45 16.2-2.336-6-4.55-13.6-9.836-17.5-1.476-1.1-3.689-2.2-7.009-2-4.918.4-11.926 5.3-8.975 10.8 2.705 5.3 11.68 8.7 17.705 11.4H3.869c-1.967 0-3.443 1.3-3.443 2.8v11.2c0 1.6 1.599 2.8 3.443 2.8h.369v36H74.32v-36h.123c1.967 0 3.442-1.3 3.442-2.8v-11.2c0-1.6-1.598-2.9-3.442-2.9ZM51.82 5.824c2.582-.3 6.024 1.3 6.393 3.2.492 2.7-4.057 5.2-6.147 6.3-3.074 1.7-6.025 2.6-8.853 4 .984-3.7 3.074-12.9 8.607-13.5Zm-27.787 9.8c-2.705-1.5-7.869-4.4-7.746-7.7.123-3.6 7.008-6.5 10.697-3.8 4.672 3.3 6.885 11 8.606 16.4-3.934-1.6-7.623-2.8-11.557-4.9Zm7.254 56.4H7.803v-33h23.484v33Zm0-36H4.115v-10.9h27.172v10.9Zm12.295 36h-8.73v-46.9h8.73v46.9Zm27.05 0H47.27v-33h23.484v33h-.123Zm3.565-36H47.27v-10.9h26.927v10.9Z" fill="#81B3D2"/></svg>