<svg width="81" height="73" viewBox="0 0 81 73" fill="none" xmlns="http://www.w3.org/2000/svg"><path d="M31.957 65.3H48.98V41.4H31.957v23.9Zm13.937-2.9H35.042V44.3h10.745v18.1h.107Z" fill="#81B3D2"/><path d="m77.808 39.4 2.234-2.1-10.531-9.9V.4H54.83v13.2L40.255 0 .575 37.4l2.234 2.1 8.297-7.8v37.8H6.957v2.9h67.98v-2.9H69.51V31.6l8.297 7.8Zm-19.893-36h8.404v21.1l-8.404-7.9V3.4Zm8.51 66H14.298V28.7L40.255 4.2 66.32 28.7v40.7h.106Z" fill="#81B3D2"/><path d="M32.277 27.2c0 4.3 3.723 7.8 8.191 7.8 4.575 0 8.298-3.5 8.298-7.8s-3.723-7.7-8.298-7.7c-4.574 0-8.191 3.4-8.191 7.7Zm8.191-5c2.872 0 5.32 2.2 5.32 5 0 2.7-2.341 5-5.32 5-2.872 0-5.319-2.2-5.319-5 0-2.7 2.447-5 5.32-5ZM21.745 41.4h-3.192v3.9h3.192v-3.9ZM28.021 41.4H24.83v3.9h3.191v-3.9ZM21.745 47.4h-3.192v3.9h3.192v-3.9ZM28.021 47.4H24.83v3.9h3.191v-3.9ZM55.68 41.4h-3.19v3.9h3.19v-3.9ZM62.064 41.4h-3.192v3.9h3.192v-3.9ZM55.68 47.4h-3.19v3.9h3.19v-3.9ZM62.064 47.4h-3.192v3.9h3.192v-3.9Z" fill="#81B3D2"/></svg>