<svg width="136" height="16" viewBox="0 0 136 16" fill="none" xmlns="http://www.w3.org/2000/svg"><path d="M6.1266 11.195h-1.869l-.756 3.234h-2.247l.756-3.234H.4566l.462-2.037h1.575l.525-2.226h-1.512l.462-2.037h1.533l.735-3.024h2.226l-.714 3.024h1.869l.735-3.024h2.226l-.714 3.024h1.512l-.525 2.037h-1.47l-.525 2.226h1.449l-.504 2.037h-1.428l-.756 3.234h-2.247l.756-3.234Zm-1.386-2.037h1.869l.525-2.226h-1.869l-.525 2.226Zm13.3221.273.378 2.499h.105l.42-2.52L21.7797.8h3.024l-5.46 14.805h-2.058L11.7837.8h3.339l2.94 8.631ZM26.1595.8h2.877v14.7h-2.877V.8Zm12.0363 10.752c0-.448-.168-.812-.504-1.092-.322-.28-.735-.532-1.239-.756-.49-.238-1.029-.476-1.617-.714a9.5747 9.5747 0 0 1-1.617-.903c-.49-.364-.903-.812-1.2391-1.344-.3219-.532-.4829-1.211-.4829-2.037 0-.714.119-1.33.357-1.848.238-.532.574-.973 1.008-1.323.448-.35.973-.609 1.575-.777.602-.168 1.274-.252 2.016-.252.854 0 1.659.077 2.415.231.756.14 1.379.35 1.869.63l-.903 2.415c-.308-.196-.77-.371-1.386-.525-.616-.168-1.281-.252-1.995-.252-.672 0-1.19.133-1.554.399-.35.266-.525.623-.525 1.071 0 .42.161.77.483 1.05.336.28.749.539 1.239.777.504.238 1.043.483 1.617.735.588.252 1.127.56 1.617.924.504.35.917.791 1.239 1.323.336.518.504 1.169.504 1.953s-.133 1.463-.399 2.037c-.252.56-.616 1.029-1.092 1.407-.462.378-1.029.658-1.701.84-.658.182-1.386.273-2.184.273-1.05 0-1.974-.098-2.772-.294-.798-.196-1.386-.392-1.764-.588l.924-2.457c.154.084.35.175.588.273.252.098.532.189.84.273.308.084.63.154.966.21.35.056.707.084 1.071.084.854 0 1.505-.14 1.953-.42.462-.294.693-.735.693-1.323ZM43.2835.8h2.877v14.7h-2.877V.8Zm16.1313 2.562h-4.284V15.5h-2.877V3.362h-4.305V.8h11.466v2.562Zm7.8405 8.19c0-.448-.168-.812-.504-1.092-.322-.28-.735-.532-1.239-.756-.49-.238-1.029-.476-1.617-.714a9.5747 9.5747 0 0 1-1.617-.903c-.49-.364-.903-.812-1.239-1.344-.322-.532-.483-1.211-.483-2.037 0-.714.119-1.33.357-1.848.238-.532.574-.973 1.008-1.323.448-.35.973-.609 1.575-.777.602-.168 1.274-.252 2.016-.252.854 0 1.659.077 2.415.231.756.14 1.379.35 1.869.63l-.903 2.415c-.308-.196-.77-.371-1.386-.525-.616-.168-1.281-.252-1.995-.252-.672 0-1.19.133-1.554.399-.35.266-.525.623-.525 1.071 0 .42.161.77.483 1.05.336.28.749.539 1.239.777.504.238 1.043.483 1.617.735.588.252 1.127.56 1.617.924.504.35.917.791 1.239 1.323.336.518.504 1.169.504 1.953s-.133 1.463-.399 2.037c-.252.56-.616 1.029-1.092 1.407-.462.378-1.029.658-1.701.84-.658.182-1.386.273-2.184.273-1.05 0-1.974-.098-2.772-.294-.798-.196-1.386-.392-1.764-.588l.924-2.457c.154.084.35.175.588.273.252.098.532.189.84.273.308.084.63.154.966.21.35.056.707.084 1.071.084.854 0 1.505-.14 1.953-.42.462-.294.693-.735.693-1.323ZM72.0491.8h8.715v2.562h-5.838v3.423h5.313v2.562h-5.313v3.591h5.943V15.5h-8.82V.8Zm10.9716 0c.294-.042.623-.077.987-.105.378-.028.763-.049 1.155-.063.392-.014.77-.021 1.134-.021.378-.014.714-.021 1.008-.021 1.302 0 2.415.182 3.339.546.924.364 1.673.875 2.247 1.533.574.658.994 1.442 1.26 2.352.266.91.399 1.911.399 3.003 0 .994-.126 1.953-.378 2.877-.252.924-.672 1.743-1.26 2.457-.588.714-1.365 1.288-2.331 1.722-.952.434-2.135.651-3.549.651-.224 0-.525-.007-.903-.021-.364-.014-.749-.035-1.155-.063-.392-.014-.77-.035-1.134-.063-.364-.014-.637-.035-.819-.063V.8Zm4.515 2.352c-.308 0-.623.007-.945.021-.308.014-.539.035-.693.063v9.849c.056.014.147.028.273.042.14 0 .287.007.441.021.154 0 .301.007.441.021h.315c.812 0 1.484-.14 2.016-.42.546-.294.973-.679 1.281-1.155.322-.476.546-1.022.672-1.638.126-.63.189-1.274.189-1.932 0-.574-.056-1.148-.168-1.722-.112-.588-.322-1.113-.63-1.575-.294-.462-.7-.84-1.218-1.134-.518-.294-1.176-.441-1.974-.441Zm8.6197 4.998c0-2.45.539-4.333 1.617-5.649 1.078-1.33 2.6176-1.995 4.6196-1.995 1.05 0 1.967.182 2.751.546.784.364 1.435.882 1.953 1.554s.903 1.477 1.155 2.415.378 1.981.378 3.129c0 2.45-.546 4.34-1.638 5.67-1.078 1.316-2.611 1.974-4.599 1.974-1.064 0-1.988-.182-2.7716-.546-.784-.364-1.435-.882-1.953-1.554-.504-.672-.882-1.477-1.134-2.415-.252-.938-.378-1.981-.378-3.129Zm3.024 0c0 .742.063 1.428.189 2.058.126.616.315 1.148.567 1.596.2656.448.6016.798 1.0076 1.05s.889.378 1.449.378c1.022 0 1.813-.399 2.373-1.197.56-.798.84-2.093.84-3.885 0-.714-.063-1.379-.189-1.995-.112-.616-.294-1.155-.546-1.617-.252-.462-.581-.819-.987-1.071-.406-.266-.903-.399-1.491-.399-1.022 0-1.813.413-2.373 1.239-.5596.812-.8396 2.093-.8396 3.843Zm15.1606-.315-1.155-2.31h-.105l.336 2.31V15.5h-2.73V.695h2.1l5.565 7.833 1.113 2.247h.105l-.336-2.247V.8h2.73v14.805h-2.1l-5.523-7.77Zm17.393 4.41h-4.515l-1.113 3.255h-2.877L128.52.695h2.121l5.292 14.805h-3.024l-1.176-3.255Zm-3.78-2.31h3.15l-1.092-3.276-.441-2.31h-.105l-.441 2.331-1.071 3.255Z" fill="#000"/></svg>